<svg width="30" height="30" viewBox="0 0 30 30" fill="none" xmlns="http://www.w3.org/2000/svg">
<g clip-path="url(#clip0_13_34)">
<path d="M30 17.1875C30 24.2638 24.133 30 16.8954 30C9.65779 30 3.79075 24.2638 3.79075 17.1875C3.88025 14.68 4.57959 12.35 5.74814 10.3112L5.7085 10.3875C6.33113 9.59625 6.70701 8.59125 6.70701 7.50125C6.70701 5.31375 4.3469 3.125 1.87428 3.125H1.55849C0.692947 3.1025 1.90735e-06 2.41125 1.90735e-06 1.5625C1.90735e-06 0.71375 0.692949 0.0225 1.55594 0H1.55849H1.87812C5.8095 0 9.17324 2.05 9.97102 6.25C11.789 5.07 14.0213 4.36625 16.4211 4.36625C16.5898 4.36625 16.756 4.37 16.9235 4.37625L16.8992 4.375C24.1342 4.37875 29.9974 10.1125 29.9987 17.1862L30 17.1875ZM18.4935 17.1875C18.4935 16.325 17.7775 15.6263 16.8954 15.6263C16.0132 15.6263 15.2973 16.325 15.2973 17.1888C15.2973 18.0525 16.0119 18.7513 16.8954 18.7513C16.8967 18.7513 16.8979 18.7513 16.8992 18.7513C17.7801 18.7488 18.4922 18.05 18.4922 17.1888V17.1875H18.4935ZM26.8038 17.1875C26.8012 15.6375 25.5163 14.3825 23.931 14.3825C22.3456 14.3825 21.0582 15.64 21.0582 17.1912C21.0582 18.7425 22.3443 20 23.931 20C24.7236 20 25.4421 19.6863 25.9625 19.1775C26.4828 18.6688 26.8038 17.9662 26.8038 17.1912C26.8038 17.19 26.8038 17.1887 26.8038 17.1875ZM12.7403 17.1875C12.7377 15.6375 11.4528 14.3825 9.86746 14.3825C8.28212 14.3825 6.99467 15.64 6.99467 17.1912C6.99467 18.7425 8.28085 20 9.86746 20C10.6601 20 11.3787 19.6863 11.899 19.1775C12.4193 18.6688 12.7403 17.9662 12.7403 17.1912C12.7403 17.19 12.7403 17.1887 12.7403 17.1875ZM19.772 24.0625C19.772 22.5088 18.4833 21.25 16.8954 21.25C15.3075 21.25 14.0188 22.51 14.0188 24.0625C14.0188 25.6162 15.3075 26.875 16.8954 26.875C16.8967 26.875 16.8992 26.875 16.9005 26.875C18.4871 26.8725 19.772 25.6138 19.772 24.0625ZM19.772 10.3125C19.7694 8.7625 18.4846 7.5075 16.8992 7.5075C15.3139 7.5075 14.0264 8.765 14.0264 10.3162C14.0264 11.8675 15.3126 13.125 16.8992 13.125C17.6932 13.125 18.413 12.81 18.932 12.3C19.4511 11.7913 19.772 11.09 19.772 10.315C19.772 10.3138 19.772 10.3125 19.772 10.3112V10.3125Z" fill="black"/>
</g>
<defs>
<clipPath id="clip0_13_34">
<rect width="30" height="30" fill="white"/>
</clipPath>
</defs>
</svg>