<svg width="62" height="91" viewBox="0 0 62 91" fill="none" xmlns="http://www.w3.org/2000/svg">
<path d="M17.3439 21.2245C19.5519 21.3525 21.3759 22.2485 22.8159 23.9125C24.2879 25.5765 25.0239 28.0725 25.0239 31.4005C25.0239 33.5765 24.5599 35.3045 23.6319 36.5846C22.7039 37.8646 21.6319 38.7606 20.4159 39.2726C19.1999 39.7526 18.1279 39.9926 17.1999 39.9926C16.3359 39.9926 14.8799 40.0886 12.8319 40.2806C11.6479 40.4086 10.6879 40.4886 9.95192 40.5205C9.88793 43.4646 9.85593 45.4646 9.85593 46.5206C9.85593 50.6806 9.90393 52.9366 9.99992 53.2886C10.0639 53.6086 9.99993 53.8966 9.80793 54.1526C9.64792 54.3766 9.42392 54.5366 9.13593 54.6326C8.87993 54.6966 8.63993 54.6806 8.41593 54.5846C8.31993 54.5526 8.04792 54.5366 7.59993 54.5366C6.63993 54.5366 5.61592 54.6006 4.52792 54.7286C4.01592 54.7926 3.67992 54.6966 3.51992 54.4406C3.35992 54.1526 3.27992 53.7206 3.27992 53.1446C3.27992 52.4406 3.29592 51.8006 3.32792 51.2246L3.37592 47.1926L3.47192 41.5285C3.66392 34.7446 3.75992 29.4486 3.75992 25.6405C3.75992 24.4885 3.74392 23.8005 3.71192 23.5766C3.64792 22.8726 3.61592 22.4565 3.61592 22.3285C3.61592 21.4965 3.79192 21.0805 4.14392 21.0805C4.30392 21.0805 4.62392 21.0965 5.10392 21.1286C5.61592 21.1606 6.31992 21.1765 7.21592 21.1765C7.47193 21.1765 8.12792 21.1606 9.18392 21.1286C10.2399 21.0965 11.3439 21.0805 12.4959 21.0805C14.1919 21.0805 15.8079 21.1285 17.3439 21.2245ZM15.8559 36.5365C17.0399 36.5365 18.1439 36.1845 19.1679 35.4806C20.1919 34.7765 20.7039 33.5125 20.7039 31.6886C20.7039 29.7365 20.3039 28.2645 19.5039 27.2725C18.7039 26.2485 17.5359 25.5925 15.9999 25.3045C13.5999 24.8245 11.7119 24.6325 10.3359 24.7285C10.3359 25.6245 10.3199 26.2965 10.2879 26.7445C10.2239 28.5365 10.1439 29.8165 10.0479 30.5845C9.91993 31.7045 9.88793 32.9686 9.95192 34.3766L10.0479 36.2486L12.3039 36.3925C13.1679 36.4885 14.3519 36.5365 15.8559 36.5365Z" fill="black"/>
<path d="M40.2753 42.8647C40.5074 42.8647 40.6467 42.8647 40.6467 42.8647V40.7992V40.0565H39.0221C37.7921 37.1556 36.8406 34.4635 36.1212 32.0034H37.4208V30.3093H35.657C33.5219 22.3722 32.9417 6.38212 32.9417 6.38212C33.4523 6.05721 33.7772 5.47702 33.7772 4.82721C33.7772 3.94531 33.1506 3.20267 32.3151 3.017V0H31.5492V3.017C30.7138 3.20267 30.0872 3.94531 30.0872 4.82721C30.0872 5.47702 30.4121 6.03401 30.9226 6.38212C30.9226 6.38212 30.3424 22.349 28.2073 30.3093H26.4435V32.0034H27.7432C27.0237 34.4635 26.0722 37.1788 24.8422 40.0565H23.2177V42.8647H23.589C21.8948 46.4619 19.7829 50.3143 17.1373 54.3061H23.8443C23.8443 54.3061 23.8443 45.3479 31.9438 45.3479C40.0433 45.3479 40.0433 54.3061 40.0433 54.3061H46.7503C44.0814 50.3143 41.9695 46.4619 40.2753 42.8647ZM30.0872 33.7672H33.8004C34.1021 35.5078 34.8447 38.7569 35.1464 40.0565H28.7179C29.0196 38.7569 29.7855 35.5078 30.0872 33.7672Z" fill="black"/>
<path d="M37.52 51.264C37.424 51.616 37.104 51.952 36.56 52.272C36.048 52.592 35.584 52.8 35.168 52.896C33.632 53.376 32.272 53.904 31.088 54.48C30.96 54.512 30.72 54.592 30.368 54.72C30.048 54.848 29.776 54.912 29.552 54.912C29.232 54.912 28.896 54.8 28.544 54.576C27.904 54.352 27.584 54 27.584 53.52C27.584 53.456 27.616 53.296 27.68 53.04C27.712 52.88 28.032 52.672 28.64 52.416C29.248 52.128 29.728 51.936 30.08 51.84C30.272 51.712 30.624 51.584 31.136 51.456C31.648 51.296 32.272 51.056 33.008 50.736L34.064 50.352C34.736 50.128 35.296 50.016 35.744 50.016L36.704 49.92C37.28 49.92 37.568 50.192 37.568 50.736C37.568 50.96 37.552 51.136 37.52 51.264ZM42.368 61.344C42.368 61.984 42.32 62.576 42.224 63.12C42.192 63.6 41.968 63.84 41.552 63.84C41.424 63.84 41.248 63.808 41.024 63.744C40.8 63.68 40.624 63.632 40.496 63.6C40.016 63.504 38.624 63.456 36.32 63.456L34.496 63.408C34.08 63.376 33.472 63.36 32.672 63.36C32.096 63.36 31.664 63.376 31.376 63.408C30.416 63.472 29.568 63.504 28.832 63.504L26.288 63.456C26.032 63.456 25.888 63.52 25.856 63.648C25.824 63.744 25.808 64 25.808 64.416C25.808 64.992 25.792 65.488 25.76 65.904C25.696 67.184 25.664 68.224 25.664 69.024V71.856C25.664 72.528 25.68 73.04 25.712 73.392C25.968 73.424 26.4 73.44 27.008 73.44C27.552 73.472 28.672 73.488 30.368 73.488C31.072 73.488 32.096 73.456 33.44 73.392C34.464 73.328 35.136 73.296 35.456 73.296C35.904 73.296 36.352 73.328 36.8 73.392C37.248 73.424 37.584 73.44 37.808 73.44C38.224 73.44 38.432 73.632 38.432 74.016C38.432 74.144 38.416 74.336 38.384 74.592C38.352 74.816 38.336 75.12 38.336 75.504L38.384 78.048C38.384 78.336 38.352 78.544 38.288 78.672C38.224 78.768 38.112 78.816 37.952 78.816C37.856 78.816 37.712 78.8 37.52 78.768C37.36 78.704 37.216 78.672 37.088 78.672C36.8 78.672 36.256 78.656 35.456 78.624C34.688 78.592 33.632 78.576 32.288 78.576C30.848 78.576 29.6 78.64 28.544 78.768C27.488 78.896 26.848 78.96 26.624 78.96C26.272 78.96 26.064 78.944 26 78.912C25.84 78.912 25.744 78.896 25.712 78.864V83.664C25.936 83.664 26.112 83.648 26.24 83.616L27.584 83.568L33.248 83.52C34.4 83.52 35.312 83.536 35.984 83.568L39.296 83.616L41.312 83.568C41.696 83.568 41.952 83.664 42.08 83.856C42.208 84.016 42.272 84.256 42.272 84.576L42.224 85.536L42.176 88.896C42.176 89.408 42.064 89.728 41.84 89.856C41.616 89.952 41.296 90 40.88 90C40.464 89.968 40.128 89.952 39.872 89.952C38.496 89.952 37.312 89.936 36.32 89.904L31.424 89.856C31.04 89.856 29.12 89.904 25.664 90L23.84 90.048L23.552 90.096C23.36 90.096 23.248 90.048 23.216 89.952C23.184 89.824 23.168 89.6 23.168 89.28C23.136 88.928 23.12 88.336 23.12 87.504C23.12 87.248 23.104 86.976 23.072 86.688C23.04 86.368 23.024 85.952 23.024 85.44V78.864C23.024 78.224 23.04 77.6 23.072 76.992C23.136 76.384 23.168 75.936 23.168 75.648C23.296 74.176 23.36 72.768 23.36 71.424C23.36 69.76 23.312 68.448 23.216 67.488C23.152 66.4 23.12 65.408 23.12 64.512C23.12 62.496 23.168 60.144 23.264 57.456C23.264 57.04 23.344 56.768 23.504 56.64C23.664 56.48 23.888 56.4 24.176 56.4L24.896 56.448C25.184 56.448 25.648 56.48 26.288 56.544C26.928 56.576 27.712 56.592 28.64 56.592C29.696 56.592 30.944 56.512 32.384 56.352C34.112 56.224 35.264 56.16 35.84 56.16C37.152 56.16 38.352 56.208 39.44 56.304L41.168 56.352C41.584 56.352 41.856 56.448 41.984 56.64C42.112 56.832 42.176 57.184 42.176 57.696C42.176 57.984 42.208 58.48 42.272 59.184C42.336 60.016 42.368 60.736 42.368 61.344Z" fill="black"/>
<g clip-path="url(#clip0_1_56)">
<path d="M41.8923 74.053C41.8923 76.4044 42.5909 78.7606 43.9747 81.6162C47.5564 81.5175 51.153 79.7377 53.0573 77.9596C52.6111 76.8687 52.4123 75.4651 52.4123 74.053C52.4123 72.641 52.611 71.2373 53.0572 70.1465C51.1529 68.3684 47.5563 66.5886 43.9748 66.4898C42.5909 69.3455 41.8922 71.7016 41.8922 74.053H41.8923ZM45.2748 82.5362C45.6873 84.1256 46.5607 85.0707 47.8177 85.6818C49.9447 86.0353 51.3792 85.6959 52.4986 84.9889C53.5873 84.3015 54.3947 83.2262 55.1438 82.0095C55.0709 81.3177 55.0038 80.6643 54.7962 80.1067C54.6034 79.5888 54.2942 79.1398 53.7171 78.7362C51.8278 80.4916 48.667 82.1252 45.2749 82.5362L45.2748 82.5362ZM45.2748 65.5698C48.667 65.9808 51.8277 67.6143 53.7171 69.3698C54.2941 68.9663 54.6033 68.5173 54.7962 67.9994C55.0038 67.4418 55.0709 66.7884 55.1437 66.0966C54.3947 64.8798 53.5873 63.8046 52.4986 63.1172C51.3792 62.4102 49.9447 62.0708 47.8177 62.4243C46.5607 63.0354 45.6874 63.9806 45.2749 65.5699L45.2748 65.5698ZM50.2888 86.7801C51.9307 87.9148 53.7619 88.6942 55.6614 88.6942C57.0124 88.6942 58.3248 88.5776 59.3295 88.2892C60.3342 88.0008 60.9742 87.5603 61.1946 86.9947C61.4804 86.1253 59.8147 84.8552 58.6127 84.106C58.2263 83.9022 57.7444 83.6647 57.2762 83.4399C56.5798 83.1057 56.1076 82.8904 55.8524 82.7745C55.1056 83.959 54.2438 85.0777 53.0286 85.8451C52.2611 86.3298 51.3583 86.6605 50.2887 86.7801H50.2888ZM50.2888 61.3259C51.3583 61.4456 52.2611 61.7763 53.0286 62.2609C54.2438 63.0283 55.1055 64.147 55.8524 65.3316C56.1076 65.2157 56.5798 65.0003 57.2762 64.6661C57.7444 64.4413 58.2263 64.2038 58.6127 64C59.4915 63.5328 61.4254 62.3345 61.1946 61.1113C60.9742 60.5459 60.3342 60.1052 59.3295 59.8168C58.3248 59.5284 57.0124 59.4118 55.6614 59.4118C53.7619 59.4118 51.9307 60.1912 50.2888 61.3259Z" fill="black"/>
</g>
<defs>
<clipPath id="clip0_1_56">
<rect width="30.6961" height="20.7941" fill="white" transform="matrix(0 -1 1 0 40.902 89.1177)"/>
</clipPath>
</defs>
</svg>
