<svg width="16" height="16" viewBox="0 0 16 16" fill="none" xmlns="http://www.w3.org/2000/svg">
<path fill-rule="evenodd" clip-rule="evenodd" d="M7.99923 0.5C8.1381 0.499911 8.27427 0.538382 8.39257 0.611125C8.51086 0.683869 8.60664 0.788029 8.66923 0.912L10.7332 5.006L15.3552 5.668C15.4946 5.68787 15.6256 5.74657 15.7331 5.83738C15.8407 5.92819 15.9206 6.04745 15.9636 6.18151C16.0065 6.31557 16.0109 6.45902 15.9762 6.59545C15.9415 6.73189 15.8691 6.85579 15.7672 6.953L12.4322 10.133L13.2182 14.621C13.2423 14.7585 13.2274 14.9 13.1754 15.0295C13.1234 15.1591 13.0363 15.2715 12.9239 15.3543C12.8114 15.437 12.6781 15.4867 12.539 15.4978C12.3998 15.5088 12.2603 15.4809 12.1362 15.417L7.99923 13.287L3.86223 15.417C3.73811 15.4809 3.59862 15.5088 3.45947 15.4978C3.32032 15.4867 3.18703 15.437 3.07458 15.3543C2.96214 15.2715 2.87502 15.1591 2.82301 15.0295C2.77101 14.9 2.75619 14.7585 2.78023 14.621L3.56623 10.132L0.231226 6.952C0.129689 6.85475 0.057532 6.73092 0.0229887 6.59463C-0.0115546 6.45834 -0.0070935 6.31509 0.035863 6.18121C0.0788194 6.04734 0.158541 5.92824 0.265933 5.83749C0.373325 5.74675 0.504061 5.68802 0.643226 5.668L5.26523 5.006L7.32923 0.912C7.39181 0.788029 7.48759 0.683869 7.60589 0.611125C7.72418 0.538382 7.86035 0.499911 7.99923 0.5ZM7.99923 2.916L6.42923 6.03C6.37482 6.13797 6.29512 6.23118 6.19692 6.3017C6.09871 6.37222 5.98492 6.41795 5.86523 6.435L2.38523 6.933L4.89223 9.323C4.98133 9.40829 5.04802 9.51423 5.08639 9.63145C5.12476 9.74866 5.13364 9.87354 5.11223 9.995L4.51823 13.391L7.65623 11.775C7.76233 11.7204 7.87992 11.692 7.99923 11.692C8.11854 11.692 8.23612 11.7204 8.34223 11.775L11.4802 13.391L10.8852 9.995C10.8639 9.87345 10.873 9.74853 10.9115 9.63131C10.9501 9.51409 11.017 9.40819 11.1062 9.323L13.6132 6.933L10.1332 6.435C10.0137 6.4178 9.90012 6.372 9.8021 6.30149C9.70408 6.23098 9.62454 6.13784 9.57023 6.03L7.99923 2.916Z" fill="#FF0020"/>
</svg>
